# xmcd
#
# Track frame offsets: 
#        150
#        14557
#        32597
#        45627
#        60719
#        79039
#        94700
#        112787
#        129282
#        144961
#        159725
#        185850
#
# Disc length: 2799 seconds
#
# Revision: 0
# Processed by: cddbd v1.5.2PL0 Copyright (c) Steve Scherf et al.
# Submitted via: ExactAudioCopy v1.3
#
DISCID=960aed0c
DTITLE=Bobby Lynn Shehorn - Still Called The Blues
DYEAR=2012
DGENRE=Blues
TTITLE0=Still Called The Blues
TTITLE1=I'm Goin' In The Valley
TTITLE2=I Can't Hack It
TTITLE3=Just My Baby And Me
TTITLE4=Someone Special
TTITLE5=Street People
TTITLE6=Just Because
TTITLE7=My Baby's Garage
TTITLE8=She's A Screamer
TTITLE9=Nothin' Like Love
TTITLE10=When A Man Loves A Woman
TTITLE11=Born In Chicago
EXTD=
EXTT0=
EXTT1=
EXTT2=
EXTT3=
EXTT4=
EXTT5=
EXTT6=
EXTT7=
EXTT8=
EXTT9=
EXTT10=
EXTT11=
PLAYORDER=
